<?xml version="1.0" encoding="UTF-8"?>
<svg version="1.1" xmlns="http://www.w3.org/2000/svg" width="512" height="512">
<path d="M0 0 C2.33957299 0.38946017 4.68039704 0.71399064 7.03125 1.02685547 C13.60254473 1.98712182 19.2733499 3.29693634 23.99609375 8.23388672 C26.91329147 12.62944751 27.63047893 17.26032537 28.4375 22.40576172 C28.62820068 23.5557666 28.62820068 23.5557666 28.82275391 24.72900391 C30.99999258 37.89477387 32.5775701 50.92373887 32.640625 64.28466797 C32.64768463 65.28652634 32.65474426 66.2883847 32.66201782 67.32060242 C32.89017298 109.20976853 32.89017298 109.20976853 29.4375 128.40576172 C29.23882324 129.54207031 29.04014648 130.67837891 28.83544922 131.84912109 C25.67926912 149.44807587 21.21035837 166.48897087 15.4375 183.40576172 C15.13118652 184.30665527 14.82487305 185.20754883 14.50927734 186.13574219 C-1.3382345 231.897466 -28.57681974 272.13272271 -63.05859375 305.86669922 C-64.63484662 307.47979956 -66.06397722 309.1672168 -67.5 310.90576172 C-69.58512088 313.38985789 -71.7626231 315.52289354 -74.234375 317.62060547 C-78.61376984 321.40989753 -82.76542703 325.38973368 -86.875 329.46826172 C-87.57689453 330.14953125 -88.27878906 330.83080078 -89.00195312 331.53271484 C-92.77883077 335.28078884 -95.34316711 338.50767989 -97.5625 343.40576172 C-99.17578125 345.23388672 -99.17578125 345.23388672 -100.875 346.65576172 C-101.42800781 347.13529297 -101.98101562 347.61482422 -102.55078125 348.10888672 C-108.13540383 351.7090706 -113.92051885 351.73634641 -120.3359375 351.81982422 C-121.7215538 351.84887344 -121.7215538 351.84887344 -123.13516235 351.87850952 C-126.06918264 351.93801877 -129.00324276 351.98457567 -131.9375 352.03076172 C-133.93361032 352.06896789 -135.92970463 352.10802114 -137.92578125 352.14794922 C-142.80455651 352.24369668 -147.68340891 352.32783311 -152.5625 352.40576172 C-151.64726562 353.29779297 -150.73203125 354.18982422 -149.7890625 355.10888672 C-148.58827718 356.29090976 -147.38777091 357.47321633 -146.1875 358.65576172 C-145.58421875 359.24228516 -144.9809375 359.82880859 -144.359375 360.43310547 C-143.77929688 361.00673828 -143.19921875 361.58037109 -142.6015625 362.17138672 C-142.06740723 362.69506836 -141.53325195 363.21875 -140.98291016 363.75830078 C-137.06028599 368.3079515 -137.12492381 372.69949404 -137.265625 378.50341797 C-137.68713006 382.62418453 -138.6583063 384.43242055 -141.5625 387.40576172 C-142.99194587 388.36327425 -144.4338013 389.30234246 -145.8828125 390.22998047 C-153.11982661 395.23363083 -158.97452216 401.60488208 -165.0625 407.90576172 C-172.44415773 415.54556235 -179.48299956 422.74893271 -188.5625 428.40576172 C-189.65175781 429.12763672 -190.74101562 429.84951172 -191.86328125 430.59326172 C-208.67291721 440.70956663 -227.67482886 446.27302685 -247.27776361 444.90007007 C-250.96286337 444.64457058 -254.65103997 444.44046279 -258.33880615 444.22763062 C-259.12246225 444.18130609 -259.90611835 444.13498157 -260.7135216 444.08725327 C-277.27276404 443.12066024 -293.8559658 442.6156751 -310.4375 442.21826172 C-311.3428609 442.19634467 -312.2482218 442.17442761 -313.18101788 442.15184641 C-371.01126442 439.35369713 -371.01126442 439.35369713 -421.05630493 464.01670837 C-433.33857523 475.82374147 -443.56952303 489.99743535 -451.82888794 504.85618591 C-453.61957634 507.48970233 -454.58879062 508.40446843 -457.5625 509.40576172 C-463.07873758 510.06648098 -467.9859205 510.13774506 -473.0625 507.78076172 C-477.8768755 503.20710499 -479.81406236 500.09701552 -480.0625 493.40576172 C-480.11710642 488.16354568 -478.74179694 485.54480599 -475.5625 481.40576172 C-472.8483429 479.50756836 -472.8483429 479.50756836 -469.70825195 477.81591797 C-447.52701356 465.22491992 -424.7958874 447.43633984 -416.5625 422.40576172 C-406.18579675 380.49691036 -412.04663839 331.35122267 -414.54875183 288.68634033 C-414.63486432 287.14702676 -414.7207416 285.60770001 -414.80636883 284.06835938 C-414.96298214 281.25795693 -415.14439712 278.45093218 -415.3433733 275.64324951 C-416.0369069 263.60762029 -414.06271739 252.31224266 -409.9375 240.96826172 C-409.68589111 240.27071777 -409.43428223 239.57317383 -409.17504883 238.85449219 C-407.2331352 233.70960692 -404.90414669 228.84451881 -402.25 224.03076172 C-401.91983887 223.42562744 -401.58967773 222.82049316 -401.24951172 222.19702148 C-394.81294195 211.07590966 -385.45693579 202.00052868 -376.43676758 192.98950195 C-375.24282627 191.78956096 -374.04929047 190.58921636 -372.85612488 189.38850403 C-369.64628879 186.16116553 -366.430151 182.94018203 -363.21219468 179.72094226 C-361.19901951 177.70633805 -359.18727812 175.69031331 -357.17603111 173.67378426 C-350.15208816 166.63140639 -343.12306774 159.59414367 -336.08911133 152.56176758 C-329.54114812 146.01500998 -323.00447016 139.45713083 -316.47287637 132.89404529 C-310.85005555 127.24508571 -305.21956342 121.60385109 -299.58301848 115.96858555 C-296.22256728 112.60864388 -292.86528463 109.24568003 -289.51569557 105.87490654 C-286.37175689 102.7116215 -283.21838096 99.55806058 -280.05748177 96.411726 C-278.90028901 95.25662558 -277.74649866 94.0981049 -276.59640884 92.93593216 C-275.02505037 91.34913881 -273.44183096 89.7751984 -271.85505676 88.20384216 C-270.97260694 87.3203028 -270.09015711 86.43676344 -269.18096638 85.52645016 C-265.03574085 82.16924385 -260.90976952 80.99462892 -255.625 81.40576172 C-254.83222656 81.44701172 -254.03945312 81.48826172 -253.22265625 81.53076172 C-249.23165769 82.84351308 -246.58174342 85.55591839 -243.5625 88.40576172 C-243.54791748 87.80103027 -243.53333496 87.19629883 -243.51831055 86.57324219 C-243.44340812 83.80846907 -243.34688927 81.04484814 -243.25 78.28076172 C-243.21616211 76.85376953 -243.21616211 76.85376953 -243.18164062 75.39794922 C-242.9430127 69.15023631 -242.2594414 64.54755944 -238.046875 59.64013672 C-199.74619718 26.86027732 -147.40920038 9.05349248 -98.5625 0.40576172 C-97.56105957 0.2249707 -96.55961914 0.04417969 -95.52783203 -0.14208984 C-65.03008597 -5.36612058 -30.49051868 -5.10279953 0 0 Z M-195.90803528 70.83320618 C-198.5625 72.40576172 -198.5625 72.40576172 -201.40621948 73.7963562 C-207.18689333 76.7682157 -207.18689333 76.7682157 -210.53797913 82.06117249 C-210.86665397 85.29685799 -210.8525097 88.37118943 -210.71484375 91.62060547 C-210.71198868 92.79031387 -210.70913361 93.96002228 -210.70619202 95.16517639 C-210.68914143 98.89384508 -210.59852505 102.61593133 -210.5 106.34326172 C-210.43856302 110.06586111 -210.39297778 113.78760662 -210.36878967 117.51063538 C-210.34992432 119.82267993 -210.30779577 122.13468776 -210.23899841 124.44578552 C-210.13689255 131.28857196 -210.87516909 135.58787871 -214.5625 141.40576172 C-218.53341502 144.92285788 -223.38563401 145.53093637 -228.5625 145.40576172 C-239.93128968 142.21452251 -248.5079353 130.57083112 -256.5625 122.40576172 C-260.05643857 123.90522333 -262.32691546 125.91230129 -265.01385498 128.58296204 C-265.89969269 129.45882462 -266.7855304 130.33468719 -267.69821167 131.23709106 C-268.67229233 132.21027594 -269.64625695 133.18357697 -270.62011719 134.15698242 C-271.6516584 135.18089979 -272.68360021 136.20441372 -273.71591187 137.22755432 C-276.51864787 140.00834511 -279.31478395 142.79568104 -282.10910702 145.58492303 C-283.85899586 147.33116462 -285.61017514 149.07610153 -287.36179352 150.82060814 C-293.48423393 156.91854217 -299.60091996 163.02218815 -305.71289062 169.13061523 C-311.38930728 174.80340829 -317.07867988 180.46297302 -322.77422976 186.11654979 C-327.67677054 190.98423805 -332.56948733 195.86166083 -337.45498013 200.74645871 C-340.36682259 203.65751264 -343.28240226 206.56455261 -346.20815277 209.46163368 C-348.96742527 212.19447248 -351.71413685 214.93937124 -354.45225906 217.69339561 C-355.45077608 218.69370792 -356.45345303 219.68989076 -357.46089554 220.68121338 C-375.53573295 238.48471152 -383.40722602 259.82163078 -383.68275452 285.02484131 C-383.68559556 286.97180098 -383.68312865 288.91877387 -383.67602539 290.86572266 C-383.67617142 291.94036774 -383.67631744 293.01501282 -383.6764679 294.1222229 C-383.67577849 297.62821566 -383.66803219 301.1341534 -383.66015625 304.64013672 C-383.65828861 307.08921276 -383.65686634 309.53828917 -383.65586853 311.98736572 C-383.65207059 318.39877372 -383.64226386 324.81015866 -383.63116455 331.22155762 C-383.62089158 337.77774748 -383.61635835 344.33394111 -383.61132812 350.89013672 C-383.60063889 363.7286883 -383.58365671 376.56722341 -383.5625 389.40576172 C-377.14791578 384.11890769 -371.31839778 378.2932239 -365.45942688 372.40948486 C-364.33863285 371.28769368 -363.21761448 370.1661266 -362.09639233 369.04476333 C-359.02785869 365.97458984 -355.96244378 362.90131907 -352.89752662 359.82753587 C-349.58719124 356.50875009 -346.27392028 353.19289738 -342.96096802 349.87672424 C-337.22465798 344.13412378 -331.49007379 338.3898046 -325.75655556 332.64441681 C-317.4635464 324.33441964 -309.16681644 316.02814504 -300.86898293 307.72296545 C-287.40125255 294.24329622 -273.93502811 280.76212383 -260.47045898 267.27929688 C-259.66501013 266.4727579 -258.85956128 265.66621893 -258.02970489 264.83523938 C-246.58759485 253.37750341 -235.1469723 241.91828329 -223.70693811 230.45847473 C-222.90057969 229.65072299 -222.09422126 228.84297125 -221.26342773 228.01074219 C-220.05536505 226.80058921 -220.05536505 226.80058921 -218.82289705 225.56598869 C-205.40624759 212.12632497 -191.98575606 198.69050549 -178.56209248 185.25784755 C-170.28109796 176.97099354 -162.00338433 168.68088857 -153.72982695 160.38660923 C-148.06585689 154.70895698 -142.39830968 149.03489238 -136.72789971 143.36367187 C-133.45398302 140.08904952 -130.18175337 136.81278485 -126.91385078 133.53215981 C-123.92482149 130.53155451 -120.93125755 127.53555361 -117.93395843 124.54320964 C-116.84822852 123.45763153 -115.76420705 122.3703416 -114.68203882 121.28121296 C-113.21506983 119.80529446 -111.74210791 118.33563072 -110.26744556 116.86740494 C-109.44952528 116.04818314 -108.63160499 115.22896134 -107.78889924 114.38491464 C-102.92464442 110.06084556 -98.82645844 109.97341169 -92.48046875 110.08935547 C-88.54188917 110.51643036 -86.42468084 111.69035938 -83.5625 114.40576172 C-80.89552535 118.13696183 -80.13088619 120.76969179 -80.125 125.34326172 C-80.09599609 126.84179688 -80.09599609 126.84179688 -80.06640625 128.37060547 C-81.02937191 134.26213551 -85.24529836 138.33826829 -89.34946823 142.4360323 C-89.81838637 142.90695853 -90.28730451 143.37788476 -90.77043229 143.86308149 C-92.3367797 145.43370676 -93.9101399 146.99710736 -95.48358154 148.56062317 C-96.62178262 149.69898037 -97.75954216 150.83777919 -98.89689851 151.97698039 C-102.01881885 155.10143006 -105.14693043 158.21961602 -108.27608466 161.33681858 C-111.6511879 164.70122411 -115.02049338 168.07142692 -118.39048767 171.44094849 C-124.22856026 177.27665962 -130.07022724 183.1087525 -135.91429901 188.93845558 C-144.36433355 197.36781179 -152.80836524 205.80316061 -161.25084618 214.24008139 C-174.94916823 227.92914905 -188.65158549 241.61410953 -202.35693359 255.29614258 C-203.17709065 256.11490632 -203.99724771 256.93367006 -204.84225801 257.77724483 C-205.6634735 258.59706479 -206.48468899 259.41688475 -207.3307898 260.26154774 C-218.98475669 271.89572948 -230.63774268 283.53089252 -242.28955078 295.16723633 C-243.10992367 295.98651837 -243.93029656 296.80580041 -244.77552924 297.64990918 C-258.43241159 311.28879626 -272.08728277 324.92969573 -285.74111867 338.57163256 C-294.16886201 346.99176927 -302.59868109 355.4098184 -311.03116021 363.82521244 C-316.80140919 369.58393058 -322.56999255 375.34431338 -328.33724537 381.10603211 C-331.66956836 384.43500985 -335.00274724 387.76311978 -338.33809471 391.08906746 C-341.38584734 394.12824564 -344.43134549 397.16966343 -347.47500411 400.21294149 C-348.58166912 401.31863363 -349.68919922 402.42346067 -350.79763827 403.52737436 C-352.293684 405.01754168 -353.78668154 406.51069486 -355.27889633 408.00469685 C-356.11211277 408.83644942 -356.9453292 409.66820199 -357.80379462 410.52515918 C-359.67633991 412.09835489 -359.67633991 412.09835489 -359.5625 413.40576172 C-345.51390007 413.45274633 -331.46531254 413.48774543 -317.41664982 413.50938606 C-310.8917523 413.5197778 -304.36690795 413.53385189 -297.84204102 413.55664062 C-291.53316673 413.57853453 -285.22434326 413.59036491 -278.91543388 413.5955162 C-276.52076863 413.59918248 -274.12610582 413.60634082 -271.73146248 413.61722183 C-241.05213466 413.75095164 -215.27612035 410.80854621 -192.37890625 388.33544922 C-188.4062296 384.39207024 -184.4728753 380.41087217 -180.5625 376.40576172 C-184.30081518 371.80577815 -188.32337664 367.58418694 -192.546875 363.42919922 C-193.09138306 362.89256653 -193.63589111 362.35593384 -194.19689941 361.80303955 C-196.47968022 359.5567892 -198.76521453 357.31352019 -201.06005859 355.07958984 C-202.74996441 353.43206262 -204.43023229 351.77518514 -206.109375 350.11669922 C-206.62707458 349.61762054 -207.14477417 349.11854187 -207.67816162 348.6043396 C-211.84251521 344.46989207 -213.36698171 341.39353097 -213.9375 335.59326172 C-213.75262262 330.14964999 -211.88225131 325.87286125 -208.14926147 321.90275574 C-201.74898771 317.03434273 -194.95408954 318.39885185 -187.42360115 319.21314049 C-146.31692478 323.94382715 -146.31692478 323.94382715 -109.15795898 309.74766541 C-102.98632265 304.63930339 -97.44168592 299.01355997 -92.125 293.03076172 C-91.61336555 292.45577061 -91.10173111 291.8807795 -90.57459259 291.28836441 C-84.62715072 284.54141494 -79.09351348 277.54446911 -73.74797058 270.30981445 C-70.16834563 265.55320976 -66.35761761 260.99062526 -62.5625 256.40576172 C-28.72128891 214.49821839 -8.55702297 164.67310734 -1.5625 111.40576172 C-1.43195976 110.42782402 -1.43195976 110.42782402 -1.29878235 109.43013 C-0.5735706 103.56670981 -0.40163318 97.78262956 -0.39453125 91.87841797 C-0.39120285 90.89062851 -0.38787445 89.90283905 -0.38444519 88.88511658 C-0.37940768 86.80175233 -0.37703588 84.7183801 -0.37719727 82.63500977 C-0.3750278 79.50832143 -0.35688472 76.38199641 -0.33789062 73.25537109 C-0.11023598 53.14179357 -0.11023598 53.14179357 -3.5625 33.40576172 C-69.27728584 22.31377557 -139.1251388 35.73847135 -195.90803528 70.83320618 Z " fill="#00564F" transform="translate(479.5625,2.59423828125)"/>
</svg>
