<?xml version="1.0" encoding="UTF-8"?>
<svg version="1.1" xmlns="http://www.w3.org/2000/svg" width="512" height="512">
<path d="M0 0 C1.76827517 -0.00668677 1.76827517 -0.00668677 3.57227308 -0.01350862 C4.85834052 -0.01332426 6.14440796 -0.01313989 7.46944714 -0.01294994 C8.85669326 -0.01625183 10.24393842 -0.01997808 11.63118237 -0.02409142 C15.43853926 -0.03408297 19.24588039 -0.03782363 23.05324852 -0.04048073 C27.16189783 -0.04439236 31.27053476 -0.05397021 35.37917614 -0.0626936 C45.30046115 -0.08243574 55.22174715 -0.09252222 65.14304689 -0.10142139 C69.82048358 -0.10580873 74.49791915 -0.11117445 79.17535496 -0.11641026 C94.73413165 -0.13342171 110.29290764 -0.14791386 125.8516922 -0.155159 C129.887297 -0.15706875 133.9229018 -0.1589891 137.95850658 -0.16094494 C138.96148209 -0.16142868 139.9644576 -0.16191242 140.9978263 -0.16241082 C157.22991006 -0.17070356 173.46191995 -0.19602808 189.69397149 -0.22852562 C206.37661807 -0.26165162 223.05922719 -0.27961283 239.74190682 -0.28280324 C249.10141341 -0.28496341 258.46081232 -0.29363946 267.82028675 -0.31926441 C275.79471807 -0.34104738 283.76901557 -0.34898474 291.74347327 -0.33929763 C295.80638529 -0.33477457 299.86902164 -0.33652161 303.93189526 -0.35605907 C335.21126712 -0.49811062 335.21126712 -0.49811062 349.03052807 4.13422108 C350.2108426 4.52242873 351.39115713 4.91063639 352.60723877 5.31060791 C378.39313025 14.20998037 398.92405624 34.10586458 410.78052807 58.44672108 C415.40209876 69.23038603 419.14399471 81.32257159 419.16474915 93.10369301 C419.16920699 94.28254312 419.17366483 95.46139324 419.17825776 96.67596608 C419.17798122 98.60506724 419.17798122 98.60506724 419.17769909 100.57314014 C419.18100098 101.96038626 419.18472723 103.34763143 419.18884057 104.73487538 C419.19883212 108.54223227 419.20257278 112.3495734 419.20522988 116.15694153 C419.2091415 120.26559084 419.21871936 124.37422777 419.22744274 128.48286915 C419.24718488 138.40415416 419.25727136 148.32544016 419.26617053 158.24673989 C419.27055788 162.92417659 419.2759236 167.60161216 419.2811594 172.27904797 C419.29817086 187.83782465 419.31266301 203.39660065 419.31990814 218.95538521 C419.3218179 222.99099001 419.32373825 227.02659481 419.32569408 231.06219959 C419.32617782 232.0651751 419.32666156 233.06815061 419.32715996 234.10151931 C419.33545271 250.33360307 419.36077722 266.56561296 419.39327476 282.7976645 C419.42640076 299.48031108 419.44436198 316.1629202 419.44755238 332.84559983 C419.44971256 342.20510642 419.45838861 351.56450533 419.48401356 360.92397976 C419.50579653 368.89841108 419.51373388 376.87270858 419.50404678 384.84716628 C419.49952372 388.9100783 419.50127076 392.97271465 419.52080822 397.03558826 C419.66285977 428.31496013 419.66285977 428.31496013 415.03052807 442.13422108 C414.64232041 443.31453561 414.25411276 444.49485014 413.85414124 445.71093178 C404.95476878 471.49682325 385.05888457 492.02774925 360.71802807 503.88422108 C349.93436312 508.50579177 337.84217755 512.24768772 326.06105614 512.26844215 C324.88220602 512.2729 323.70335591 512.27735784 322.48878306 512.28195077 C321.20271562 512.28176641 319.91664818 512.28158205 318.591609 512.2813921 C317.20436288 512.28469398 315.81711772 512.28842024 314.42987376 512.29253358 C310.62251687 512.30252512 306.81517575 512.30626579 303.00780761 512.30892289 C298.8991583 512.31283451 294.79052138 512.32241236 290.68188 512.33113575 C280.76059499 512.35087789 270.83930899 512.36096437 260.91800925 512.36986354 C256.24057256 512.37425089 251.56313699 512.37961661 246.88570118 512.38485241 C231.32692449 512.40186386 215.7681485 512.41635601 200.20936394 512.42360115 C196.17375913 512.42551091 192.13815434 512.42743126 188.10254955 512.42938709 C187.09957405 512.42987083 186.09659854 512.43035457 185.06322984 512.43085297 C168.83114607 512.43914572 152.59913618 512.46447023 136.36708464 512.49696777 C119.68443806 512.53009377 103.00182895 512.54805499 86.31914932 512.55124539 C76.95964273 512.55340556 67.60024381 512.56208162 58.24076939 512.58770657 C50.26633806 512.60948954 42.29204057 512.61742689 34.31758287 512.60773978 C30.25467085 512.60321673 26.1920345 512.60496377 22.12916088 512.62450123 C-10.54553189 512.77278104 -36.6705909 507.44955071 -61.96947193 485.13422108 C-62.90339771 484.32597889 -62.90339771 484.32597889 -63.85619068 483.50140858 C-79.81124524 468.69928337 -92.13453418 444.07868187 -93.09712243 422.23787355 C-93.09836893 421.22097712 -93.09961543 420.20408069 -93.1008997 419.15636921 C-93.10474084 417.975669 -93.10858199 416.79496879 -93.11253953 415.57848978 C-93.11167305 414.29037598 -93.11080657 413.00226218 -93.10991383 411.67511463 C-93.11249929 410.28573064 -93.11551295 408.89634739 -93.11891723 407.50696516 C-93.12696947 403.69381415 -93.12877581 399.88068198 -93.12951469 396.06752348 C-93.13136839 391.95279818 -93.1389174 387.83808259 -93.14564991 383.72336292 C-93.159222 374.72719869 -93.16525644 365.73103891 -93.16966057 356.73486614 C-93.17242537 351.11410268 -93.1766632 345.49334093 -93.18116474 339.87257862 C-93.19335684 324.30092699 -93.20365569 308.72927673 -93.20703983 293.15762043 C-93.2072594 292.16130042 -93.20747897 291.16498041 -93.20770518 290.13846889 C-93.20792346 289.1398015 -93.20814174 288.14113411 -93.20836663 287.11220407 C-93.20881009 285.0886186 -93.20925666 283.06503312 -93.20970631 281.04144764 C-93.20992774 280.0376852 -93.21014917 279.03392276 -93.21037731 277.99974328 C-93.21432275 261.74624786 -93.23176932 245.49279735 -93.25506583 229.23931926 C-93.27880787 212.53973667 -93.29124301 195.84017658 -93.29240775 179.14057684 C-93.293323 169.76945042 -93.29903739 160.39838249 -93.31722736 151.02727222 C-93.332667 143.04508391 -93.33772615 135.06297216 -93.32948926 127.08077174 C-93.32559616 123.0122026 -93.32644635 118.94378743 -93.34054661 114.87523746 C-93.35336666 111.14173498 -93.35201782 107.40850089 -93.3399559 103.67499834 C-93.33710085 101.7032879 -93.34887304 99.73157247 -93.36137795 97.75989962 C-93.21061075 70.26969383 -81.14594991 46.69132206 -62.31322193 27.41547108 C-45.95404479 11.82613756 -22.92598129 0.040388 0 0 Z M-43.96947193 56.13422108 C-58.07568338 73.24798326 -61.13185383 92.58321557 -61.1031847 114.11815357 C-61.10545026 115.38216442 -61.10771581 116.64617528 -61.11005002 117.94848949 C-61.11611998 121.42724136 -61.11604015 124.90596903 -61.11485565 128.38472497 C-61.11465041 132.14833939 -61.12018202 135.91194629 -61.12491322 139.67555714 C-61.13319393 147.03816194 -61.13596689 154.40075873 -61.13652559 161.76336779 C-61.13700198 167.75267185 -61.13906286 173.74197329 -61.14222622 179.73127651 C-61.15102579 196.73987141 -61.15564669 213.74846002 -61.15489575 230.75705721 C-61.15485579 231.67260283 -61.15481583 232.58814845 -61.15477467 233.53143787 C-61.15473379 234.44811097 -61.1546929 235.36478407 -61.15465079 236.30923513 C-61.15424452 251.15781547 -61.16381091 266.00637042 -61.17791303 280.85494342 C-61.19230356 296.12861833 -61.19918174 311.40228089 -61.19831926 326.67596275 C-61.19798821 335.2399934 -61.20069471 343.80399745 -61.21149731 352.36802197 C-61.22063761 359.66051961 -61.22274873 366.95297857 -61.21598788 374.24547949 C-61.2127404 377.95987892 -61.21260125 381.67420431 -61.22134113 385.38859653 C-61.71175345 421.51552401 -61.71175345 421.51552401 -45.96947193 453.13422108 C-45.27853443 453.98629139 -44.58759693 454.8383617 -43.87572193 455.71625233 C-31.33278138 470.44537442 -14.23304705 478.28103664 4.91649497 479.93074572 C10.28197621 480.2813339 15.63932666 480.27508968 21.01446056 480.26793385 C22.27847142 480.2701994 23.54248227 480.27246496 24.84479648 480.27479917 C28.32354835 480.28086913 31.80227602 480.2807893 35.28103197 480.27960479 C39.04464638 480.27939956 42.80825328 480.28493117 46.57186413 480.28966236 C53.93446893 480.29794308 61.29706572 480.30071603 68.65967479 480.30127474 C74.64897884 480.30175113 80.63828028 480.30381201 86.6275835 480.30697536 C103.6361784 480.31577493 120.64476701 480.32039584 137.6533642 480.31964489 C138.56890982 480.31960493 139.48445544 480.31956498 140.42774487 480.31952381 C141.80275451 480.31946249 141.80275451 480.31946249 143.20554212 480.31939993 C158.05412246 480.31899367 172.90267741 480.32856006 187.75125041 480.34266218 C203.02492532 480.35705271 218.29858788 480.36393089 233.57226974 480.3630684 C242.13630039 480.36273735 250.70030444 480.36544385 259.26432896 480.37624645 C266.5568266 480.38538676 273.84928556 480.38749787 281.14178648 480.38073703 C284.85618592 480.37748954 288.5705113 480.37735039 292.28490353 480.38609028 C328.41183101 480.87650259 328.41183101 480.87650259 360.03052807 465.13422108 C360.88259838 464.44328358 361.73466869 463.75234608 362.61255932 463.04047108 C377.34168141 450.49753052 385.17734363 433.3977962 386.82705271 414.24825418 C387.1776409 408.88277293 387.17139667 403.52542249 387.16424084 398.15028858 C387.16650639 396.88627773 387.16877195 395.62226688 387.17110616 394.31995267 C387.17717612 390.8412008 387.17709629 387.36247313 387.17591178 383.88371718 C387.17570655 380.12010276 387.18123816 376.35649587 387.18596935 372.59288502 C387.19425007 365.23028022 387.19702302 357.86768343 387.19758173 350.50507436 C387.19805812 344.5157703 387.200119 338.52646887 387.20328236 332.53716564 C387.21208193 315.52857074 387.21670283 298.51998213 387.21595188 281.51138494 C387.21591193 280.59583932 387.21587197 279.68029371 387.2158308 278.73700428 C387.21578992 277.82033118 387.21574904 276.90365809 387.21570692 275.95920702 C387.21530066 261.11062669 387.22486705 246.26207173 387.23896917 231.41349874 C387.2533597 216.13982382 387.26023788 200.86616127 387.25937539 185.59247941 C387.25904435 177.02844875 387.26175084 168.46444471 387.27255344 159.90042019 C387.28169375 152.60792255 387.28380487 145.31546358 387.27704402 138.02296267 C387.27379653 134.30856323 387.27365738 130.59423785 387.28239727 126.87984562 C387.77280959 90.75291814 387.77280959 90.75291814 372.03052807 59.13422108 C371.33959057 58.28215076 370.64865307 57.43008045 369.93677807 56.55218983 C357.46436682 41.90588999 340.62078692 34.1527151 321.67929745 32.32158852 C311.52856426 31.60355059 301.30382312 31.85460302 291.13201666 31.87277174 C287.34462977 31.87733707 283.55726067 31.87029244 279.76987743 31.8648119 C272.36937574 31.8559594 264.96891482 31.85782132 257.56841159 31.86363718 C251.54915806 31.86817007 245.52991588 31.86875957 239.51066113 31.86658955 C238.65111161 31.86628308 237.7915621 31.86597661 236.90596563 31.86566086 C235.1593306 31.86502135 233.41269558 31.86437293 231.66606057 31.86371568 C215.32145402 31.85802452 198.97686997 31.86455116 182.63226712 31.87531641 C168.63447565 31.88425081 154.63671737 31.88269843 140.63892651 31.87347889 C124.34930628 31.86275474 108.05970574 31.85857373 91.77008247 31.86470342 C90.03018666 31.86534046 88.29029084 31.8659692 86.55039501 31.86658955 C85.26659465 31.86705237 85.26659465 31.86705237 83.95685893 31.86752455 C77.95094376 31.86924506 71.94504115 31.86635032 65.93912792 31.86163044 C58.6111947 31.85599772 51.28330428 31.85758803 43.95537591 31.86819193 C40.22284832 31.87341664 36.49039187 31.8755606 32.75786495 31.86889362 C2.70202538 31.81966699 -21.84928655 33.15265776 -43.96947193 56.13422108 Z " fill="#000000" transform="translate(92.96947193145752,-0.13422107696533203)"/>
<path d="M0 0 C25.06233882 22.28140271 43.24977779 52.52460163 45.88671875 86.56640625 C47.19216624 117.87149861 42.46883596 148.50611992 23.88671875 174.56640625 C23.17 175.57960938 22.45328125 176.5928125 21.71484375 177.63671875 C0.27841984 207.09558225 -30.97456978 225.38716886 -66.7734375 231.15625 C-98.71386603 234.80936357 -132.64464272 228.43969633 -159.11328125 209.56640625 C-160.12648437 208.8496875 -161.1396875 208.13296875 -162.18359375 207.39453125 C-175.74194994 197.52847953 -187.10398997 185.70394073 -196.11328125 171.56640625 C-196.82097656 170.4578125 -197.52867187 169.34921875 -198.2578125 168.20703125 C-215.47801983 139.62741373 -221.4373317 103.23901965 -213.65673828 70.6640625 C-204.16989019 34.04636313 -181.62008278 4.79995631 -149.36328125 -14.62109375 C-101.78178712 -40.93711564 -41.50376816 -34.99105133 0 0 Z M-161.11328125 37.56640625 C-178.7723869 59.2142216 -184.88464671 85.09891569 -183.11328125 112.56640625 C-180.25821493 138.26200313 -165.63396651 162.27398795 -145.78125 178.46875 C-123.61395789 194.6806502 -97.7885781 201.5404789 -70.45166016 198.24560547 C-45.05351009 194.12197605 -20.73796277 179.73051159 -5.48828125 158.87890625 C9.93781321 135.59423537 17.11888741 108.94677137 11.70654297 81.07348633 C6.24533125 56.7766132 -8.1928546 33.26773494 -29.16015625 19.35546875 C-73.83202498 -7.70764749 -125.62873701 -1.64071285 -161.11328125 37.56640625 Z " fill="#000000" transform="translate(341.11328125,155.43359375)"/>
<path d="M0 0 C8.13883026 5.79348032 13.78496238 13.26230534 16.19921875 23.03125 C18.08083034 35.01980382 16.35933265 45.71355591 9.2734375 55.609375 C1.9895267 64.5176321 -6.50193287 68.11366071 -17.796875 69.453125 C-28.87813289 70.04332243 -37.58288751 66.55358533 -46.640625 60.45703125 C-54.14265799 52.78449751 -58.30073896 42.93815058 -58.765625 32.20703125 C-58.25310241 20.72652528 -54.42784748 11.78787679 -46.390625 3.609375 C-33.39322517 -7.64388846 -14.70791081 -8.3392893 0 0 Z M-25.390625 30.64453125 C-25.07021103 33.24733693 -25.07021103 33.24733693 -24.390625 35.64453125 C-23.400625 35.97453125 -22.410625 36.30453125 -21.390625 36.64453125 C-18.71385953 35.27203162 -18.71385953 35.27203162 -16.390625 33.64453125 C-16.720625 31.99453125 -17.050625 30.34453125 -17.390625 28.64453125 C-21.88367082 28.21949679 -21.88367082 28.21949679 -25.390625 30.64453125 Z " fill="#000000" transform="translate(412.390625,88.35546875)"/>
</svg>
