<?xml version="1.0" encoding="UTF-8"?>
<svg version="1.1" xmlns="http://www.w3.org/2000/svg" width="512" height="512">
<path d="M0 0 C6.08895814 3.76023409 9.37113223 8.63744988 11.19445801 15.51699829 C11.43064138 16.84177535 11.65210853 18.16923308 11.86132812 19.49853516 C11.99023626 20.24499172 12.1191444 20.99144829 12.25195885 21.76052475 C12.686217 24.2953547 13.10068933 26.83303433 13.515625 29.37109375 C13.83500358 31.26001778 14.1556174 33.14873328 14.47732544 35.03726196 C15.19149818 39.24638203 15.89667411 43.45688743 16.59552002 47.6685791 C17.76936301 54.74196835 18.96264851 61.81200618 20.15771484 68.88183594 C21.92737215 79.362192 23.68906857 89.84385442 25.44589782 100.32636738 C29.47873354 124.3870432 33.54779205 148.44157885 37.6171875 172.49609375 C39.13711785 181.48078183 40.65698521 190.46548055 42.17675781 199.45019531 C42.36836267 200.58287684 42.55996752 201.71555838 42.75737858 202.88256359 C45.49948363 219.09329666 48.23701145 235.30479686 50.97102642 251.51689625 C52.72222098 261.90069688 54.47417118 272.28437002 56.2265625 282.66796875 C56.51393532 284.37078318 56.51393532 284.37078318 56.80711365 286.10799789 C61.88955068 316.22020958 67.00851787 346.32579737 72.18999863 376.42112732 C73.10209734 381.71950611 74.01224266 387.01821913 74.92190552 392.3170166 C75.35974687 394.86699262 75.79760162 397.41696634 76.23545718 399.96693993 C76.52072875 401.62836895 76.80597066 403.28980308 77.09118199 404.95124245 C78.7199071 414.43772715 80.35643492 423.92278632 82.00657547 433.40557015 C83.01273258 439.19083215 84.01026232 444.97753839 85.00097191 450.76546562 C85.5607541 454.03371089 86.1259902 457.30075135 86.6999855 460.56654739 C92.66260867 494.51230277 92.66260867 494.51230277 87.671875 503.08203125 C83.65064531 508.00409068 80.28019688 510.47985912 73.9921875 511.3359375 C66.89282936 511.69472227 61.91569559 511.06458436 56.1015625 506.890625 C51.543891 502.01830254 49.62792824 496.77443827 48.60742188 490.29052734 C48.47851374 489.54407078 48.3496056 488.79761421 48.21679115 488.02853775 C47.782533 485.4937078 47.36806067 482.95602817 46.953125 480.41796875 C46.63374642 478.52904472 46.3131326 476.64032922 45.99142456 474.75180054 C45.27725182 470.54268047 44.57207589 466.33217507 43.87322998 462.1204834 C42.69938699 455.04709415 41.50610149 447.97705632 40.31103516 440.90722656 C38.54137785 430.4268705 36.77968143 419.94520808 35.02285218 409.46269512 C30.99001646 385.4020193 26.92095795 361.34748365 22.8515625 337.29296875 C21.33163215 328.30828067 19.81176479 319.32358195 18.29199219 310.33886719 C18.10038733 309.20618566 17.90878248 308.07350412 17.71137142 306.90649891 C14.96926637 290.69576584 12.23173855 274.48426564 9.49772358 258.27216625 C7.74652902 247.88836562 5.99457882 237.50469248 4.2421875 227.12109375 C4.05060562 225.98588413 3.85902374 224.85067451 3.66163635 223.68106461 C-1.42080068 193.56885292 -6.53976787 163.46326513 -11.72124863 133.36793518 C-12.63334734 128.06955639 -13.54349266 122.77084337 -14.45315552 117.4720459 C-14.89099687 114.92206988 -15.32885162 112.37209616 -15.76670718 109.82212257 C-16.05197875 108.16069355 -16.33722066 106.49925942 -16.62243199 104.83782005 C-18.2511571 95.35133535 -19.88768492 85.86627618 -21.53782547 76.38349235 C-22.54398258 70.59823035 -23.54151232 64.81152411 -24.53222191 59.02359688 C-25.0920041 55.75535161 -25.6572402 52.48831115 -26.2312355 49.22251511 C-32.19385867 15.27675973 -32.19385867 15.27675973 -27.203125 6.70703125 C-20.31936654 -1.71881629 -10.3468197 -4.13580505 0 0 Z " fill="#00564F" transform="translate(381.765625,1.10546875)"/>
<path d="M0 0 C4.67415991 2.88652591 8.84306322 6.41224813 10.234375 11.89453125 C11.07708715 22.93544809 9.47092335 33.49731076 7.57348633 44.33496094 C7.28389233 46.04343587 6.99539404 47.75209683 6.7078867 49.46092415 C5.92333003 54.10517965 5.12355262 58.74669819 4.3210845 63.38788748 C3.46079295 68.37993924 2.61500085 73.37444903 1.76748657 78.36868286 C0.30628663 86.96767799 -1.16373394 95.56512596 -2.6399231 104.16156006 C-4.77621695 116.60244152 -6.89871202 129.04564602 -9.01743639 141.48953032 C-12.18309502 160.08163756 -15.3560084 178.67249466 -18.53445876 197.26241899 C-23.00822628 223.42995783 -27.45421168 249.60212577 -31.8828125 275.77734375 C-32.04148426 276.71516457 -32.20015602 277.65298539 -32.36363602 278.61922503 C-32.84049955 281.43776779 -33.31734678 284.25631332 -33.79418945 287.07485962 C-34.26449682 289.85473669 -34.73480817 292.63461308 -35.20513058 295.4144876 C-35.51473947 297.24447878 -35.82433339 299.07447249 -36.13391209 300.90446877 C-38.39302908 314.25789038 -40.65922108 327.61009556 -42.93066406 340.96142578 C-43.22446899 342.68863028 -43.51826937 344.41583555 -43.81206512 346.14304161 C-44.39021069 349.54184 -44.96835841 352.94063801 -45.54650879 356.33943558 C-45.68752769 357.16846154 -45.8285466 357.9974875 -45.97383881 358.85163546 C-46.25592414 360.50988562 -46.53803355 362.16813169 -46.82016754 363.82637358 C-50.20868966 383.74304131 -53.57060352 403.66366113 -56.87287903 423.59481812 C-58.26620278 432.00400799 -59.67246622 440.41101309 -61.0830946 448.81731606 C-62.13804909 455.11137662 -63.17502295 461.40800214 -64.19634247 467.70760345 C-64.80202095 471.41594549 -65.42535852 475.12114534 -66.05415726 478.82563019 C-66.33220132 480.48580366 -66.60285057 482.14723761 -66.8650322 483.80998993 C-68.49670939 494.13431234 -70.49597514 502.393372 -78.765625 509.45703125 C-84.33102339 512.11605492 -90.8092247 511.77721048 -96.765625 510.89453125 C-101.91660021 508.83559624 -106.73520713 505.27680889 -109.19102192 500.15867996 C-111.99478545 489.11081439 -109.02836732 476.44136469 -107.10473633 465.45410156 C-106.81514233 463.74562663 -106.52664404 462.03696567 -106.2391367 460.32813835 C-105.45458003 455.68388285 -104.65480262 451.04236431 -103.8523345 446.40117502 C-102.99204295 441.40912326 -102.14625085 436.41461347 -101.29873657 431.42037964 C-99.83753663 422.82138451 -98.36751606 414.22393654 -96.8913269 405.62750244 C-94.75503305 393.18662098 -92.63253798 380.74341648 -90.51381361 368.29953218 C-87.34815498 349.70742494 -84.1752416 331.11656784 -80.99679124 312.52664351 C-76.52302372 286.35910467 -72.07703832 260.18693673 -67.6484375 234.01171875 C-67.48976574 233.07389793 -67.33109398 232.13607711 -67.16761398 231.16983747 C-66.69075045 228.35129471 -66.21390322 225.53274918 -65.73706055 222.71420288 C-65.26675318 219.93432581 -64.79644183 217.15444942 -64.32611942 214.3745749 C-64.01651053 212.54458372 -63.70691661 210.71459001 -63.39733791 208.88459373 C-61.13822092 195.53117212 -58.87202892 182.17896694 -56.60058594 168.82763672 C-56.30678101 167.10043222 -56.01298063 165.37322695 -55.71918488 163.64602089 C-55.14103931 160.2472225 -54.56289159 156.84842449 -53.98474121 153.44962692 C-53.84372231 152.62060096 -53.7027034 151.791575 -53.55741119 150.93742704 C-53.27532586 149.27917688 -52.99321645 147.62093081 -52.71108246 145.96268892 C-49.32256034 126.04602119 -45.96064648 106.12540137 -42.65837097 86.19424438 C-41.26504722 77.78505451 -39.85878378 69.37804941 -38.4481554 60.97174644 C-37.39320091 54.67768588 -36.35622705 48.38106036 -35.33490753 42.08145905 C-34.72922905 38.37311701 -34.10589148 34.66791716 -33.47709274 30.96343231 C-33.19904868 29.30325884 -32.92839943 27.64182489 -32.6662178 25.97907257 C-31.03454061 15.65475016 -29.03527486 7.3956905 -20.765625 0.33203125 C-14.5533027 -2.63607829 -6.30080884 -2.51854365 0 0 Z " fill="#00564F" transform="translate(149.765625,1.10546875)"/>
<path d="M0 0 C4.89309924 3.02173182 7.99680271 6.54461725 10.234375 11.89453125 C10.7901864 14.99626904 10.80225292 18.02979599 10.78369141 21.17529297 C10.7990242 22.53039474 10.7990242 22.53039474 10.81466675 23.91287231 C10.84234683 26.88359468 10.84055407 29.85338317 10.8359375 32.82421875 C10.84371786 34.90016013 10.85238853 36.97609834 10.86190796 39.05203247 C10.87680842 43.3979119 10.87626775 47.74346631 10.86572266 52.08935547 C10.8541387 57.64335548 10.88799056 63.19602036 10.934412 68.74979973 C10.9639569 73.03597722 10.9656207 77.32183578 10.95939255 81.60809708 C10.96041556 83.65492521 10.97082694 85.70177201 10.99101639 87.74850082 C11.1580721 107.05260946 11.1580721 107.05260946 5.81430054 113.42068481 C-0.22017155 119.04999137 -5.11547356 119.65913699 -13.3125 119.40625 C-18.49320931 118.63852045 -22.19051317 116.71646043 -25.765625 112.89453125 C-29.58648301 107.3079088 -30.35443355 103.30624347 -30.31494141 96.61376953 C-30.32516327 95.71036835 -30.33538513 94.80696716 -30.34591675 93.87619019 C-30.37359683 90.90546782 -30.37180407 87.93567933 -30.3671875 84.96484375 C-30.37496786 82.88890237 -30.38363853 80.81296416 -30.39315796 78.73703003 C-30.40805842 74.3911506 -30.40751775 70.04559619 -30.39697266 65.69970703 C-30.3853887 60.14570702 -30.41924056 54.59304214 -30.465662 49.03926277 C-30.4952069 44.75308528 -30.4968707 40.46722672 -30.49064255 36.18096542 C-30.49166556 34.13413729 -30.50207694 32.08729049 -30.52226639 30.04056168 C-30.6893221 10.73645304 -30.6893221 10.73645304 -25.34555054 4.36837769 C-18.35137696 -2.15619424 -9.07745747 -3.62841873 0 0 Z " fill="#00564F" transform="translate(265.765625,393.10546875)"/>
<path d="M0 0 C4.89309924 3.02173182 7.99680271 6.54461725 10.234375 11.89453125 C10.7901864 14.99626904 10.80225292 18.02979599 10.78369141 21.17529297 C10.7990242 22.53039474 10.7990242 22.53039474 10.81466675 23.91287231 C10.84234683 26.88359468 10.84055407 29.85338317 10.8359375 32.82421875 C10.84371786 34.90016013 10.85238853 36.97609834 10.86190796 39.05203247 C10.87680842 43.3979119 10.87626775 47.74346631 10.86572266 52.08935547 C10.8541387 57.64335548 10.88799056 63.19602036 10.934412 68.74979973 C10.9639569 73.03597722 10.9656207 77.32183578 10.95939255 81.60809708 C10.96041556 83.65492521 10.97082694 85.70177201 10.99101639 87.74850082 C11.1580721 107.05260946 11.1580721 107.05260946 5.81430054 113.42068481 C-0.22017155 119.04999137 -5.11547356 119.65913699 -13.3125 119.40625 C-18.49320931 118.63852045 -22.19051317 116.71646043 -25.765625 112.89453125 C-29.58648301 107.3079088 -30.35443355 103.30624347 -30.31494141 96.61376953 C-30.32516327 95.71036835 -30.33538513 94.80696716 -30.34591675 93.87619019 C-30.37359683 90.90546782 -30.37180407 87.93567933 -30.3671875 84.96484375 C-30.37496786 82.88890237 -30.38363853 80.81296416 -30.39315796 78.73703003 C-30.40805842 74.3911506 -30.40751775 70.04559619 -30.39697266 65.69970703 C-30.3853887 60.14570702 -30.41924056 54.59304214 -30.465662 49.03926277 C-30.4952069 44.75308528 -30.4968707 40.46722672 -30.49064255 36.18096542 C-30.49166556 34.13413729 -30.50207694 32.08729049 -30.52226639 30.04056168 C-30.6893221 10.73645304 -30.6893221 10.73645304 -25.34555054 4.36837769 C-18.35137696 -2.15619424 -9.07745747 -3.62841873 0 0 Z " fill="#00564F" transform="translate(265.765625,197.10546875)"/>
<path d="M0 0 C4.89309924 3.02173182 7.99680271 6.54461725 10.234375 11.89453125 C10.7901864 14.99626904 10.80225292 18.02979599 10.78369141 21.17529297 C10.7990242 22.53039474 10.7990242 22.53039474 10.81466675 23.91287231 C10.84234683 26.88359468 10.84055407 29.85338317 10.8359375 32.82421875 C10.84371786 34.90016013 10.85238853 36.97609834 10.86190796 39.05203247 C10.87680842 43.3979119 10.87626775 47.74346631 10.86572266 52.08935547 C10.8541387 57.64335548 10.88799056 63.19602036 10.934412 68.74979973 C10.9639569 73.03597722 10.9656207 77.32183578 10.95939255 81.60809708 C10.96041556 83.65492521 10.97082694 85.70177201 10.99101639 87.74850082 C11.1580721 107.05260946 11.1580721 107.05260946 5.81430054 113.42068481 C-0.22017155 119.04999137 -5.11547356 119.65913699 -13.3125 119.40625 C-18.49320931 118.63852045 -22.19051317 116.71646043 -25.765625 112.89453125 C-29.58648301 107.3079088 -30.35443355 103.30624347 -30.31494141 96.61376953 C-30.32516327 95.71036835 -30.33538513 94.80696716 -30.34591675 93.87619019 C-30.37359683 90.90546782 -30.37180407 87.93567933 -30.3671875 84.96484375 C-30.37496786 82.88890237 -30.38363853 80.81296416 -30.39315796 78.73703003 C-30.40805842 74.3911506 -30.40751775 70.04559619 -30.39697266 65.69970703 C-30.3853887 60.14570702 -30.41924056 54.59304214 -30.465662 49.03926277 C-30.4952069 44.75308528 -30.4968707 40.46722672 -30.49064255 36.18096542 C-30.49166556 34.13413729 -30.50207694 32.08729049 -30.52226639 30.04056168 C-30.6893221 10.73645304 -30.6893221 10.73645304 -25.34555054 4.36837769 C-18.35137696 -2.15619424 -9.07745747 -3.62841873 0 0 Z " fill="#00564F" transform="translate(265.765625,1.10546875)"/>
</svg>
