<?xml version="1.0" encoding="UTF-8"?>
<svg version="1.1" xmlns="http://www.w3.org/2000/svg" width="512" height="512">
<path d="M0 0 C0.83298324 -0.00611336 1.66596649 -0.01222672 2.52419165 -0.01852533 C5.31599713 -0.03412838 8.10693429 -0.021258 10.89874363 -0.00850582 C12.92024081 -0.01383085 14.94173404 -0.02089628 16.9632197 -0.02955288 C22.51881541 -0.04821274 28.07414515 -0.04186361 33.62975204 -0.03139985 C39.62100014 -0.02441738 45.61219307 -0.04039854 51.60342503 -0.05339718 C62.6622531 -0.07380606 73.72101047 -0.07585169 84.77984789 -0.06818072 C94.99668102 -0.06110845 105.21348267 -0.06104999 115.43031597 -0.06804371 C116.80068849 -0.06895504 118.17106101 -0.0698658 119.54143353 -0.070776 C121.60644895 -0.07215912 123.67146437 -0.07355021 125.73647977 -0.07496213 C144.93536356 -0.08794321 164.13423682 -0.09305682 183.33312225 -0.08142853 C184.05685992 -0.08099056 184.78059759 -0.08055259 185.5262667 -0.08010134 C191.40356239 -0.0764945 197.28085793 -0.07265974 203.15815346 -0.06881041 C226.0851198 -0.05396221 249.01196703 -0.06274301 271.93892002 -0.09076595 C297.69740916 -0.12218959 323.45582778 -0.13716528 349.21433645 -0.12696594 C351.96051378 -0.12592916 354.70669111 -0.12494193 357.45286846 -0.12398243 C358.12904731 -0.12373354 358.80522616 -0.12348466 359.50189528 -0.12322823 C369.71149335 -0.11978739 379.92102917 -0.12909722 390.13061428 -0.14475346 C401.74054491 -0.16251615 413.35035011 -0.16219201 424.96027916 -0.1394018 C430.88532272 -0.12823908 436.81008077 -0.12514336 442.73511219 -0.14370251 C448.15779752 -0.16046977 453.57994747 -0.15420672 459.00259788 -0.12948572 C460.96550351 -0.12458974 462.92845202 -0.12815249 464.89132189 -0.14097316 C467.55858041 -0.15713898 470.22398408 -0.14252562 472.89115906 -0.12025452 C473.65427128 -0.13224619 474.41738351 -0.14423787 475.20362034 -0.15659294 C480.98616144 -0.05792068 485.04591724 1.82877323 489.5085001 5.50615788 C492.52418686 9.87786983 492.88596983 13.43639342 492.89618015 18.67913151 C492.90425846 19.72790242 492.90425846 19.72790242 492.91249996 20.79786062 C492.92674825 23.12854251 492.9196839 25.45865392 492.91255283 27.789361 C492.918258 29.46522317 492.92522283 31.14108146 492.93335056 32.81693363 C492.95127947 37.36028086 492.95011427 41.90343494 492.94440818 46.44680691 C492.9413164 50.24165279 492.94740856 54.03646157 492.95344692 57.83130217 C492.96748923 66.78366182 492.96593289 75.73592603 492.95454502 84.68828678 C492.94305966 93.92127928 492.95714714 103.15398146 492.9839415 112.38693571 C493.00609608 120.3183158 493.01273655 128.24960474 493.00686508 136.18101358 C493.00349426 140.9163019 493.00591912 145.65140403 493.02311611 150.3866663 C493.03857968 154.83880176 493.03463637 159.29050682 493.01581097 163.74262524 C493.01212366 165.37524235 493.01523772 167.00789131 493.02569675 168.64047909 C493.03889933 170.87187666 493.02736779 173.1018477 493.00970554 175.33318424 C493.00949626 176.58087337 493.00928698 177.82856251 493.00907135 179.1140604 C492.24725366 184.27648206 489.77330737 187.33621115 486.0085001 190.81865788 C481.39381955 193.93356724 476.87452033 193.65010636 471.44581985 193.63758564 C470.21121814 193.64066459 470.21121814 193.64066459 468.95167497 193.64380574 C466.17581727 193.64948931 463.40000897 193.64801682 460.62414646 193.64659977 C458.62102953 193.64918262 456.61791311 193.65219556 454.61479741 193.65560317 C449.09618166 193.6636857 443.57757891 193.66546344 438.05895793 193.66620064 C432.11268665 193.66804899 426.16642214 193.67559518 420.22015476 193.68233585 C406.53360963 193.69663707 392.84706547 193.70244663 379.16051458 193.7070278 C372.3984039 193.70936332 365.63629408 193.7129659 358.87418406 193.71672318 C335.73047893 193.72955826 312.58677426 193.74027797 289.44306564 193.74372578 C287.99017913 193.74394741 286.53729261 193.74416919 285.0844061 193.74439113 C283.62799791 193.74461177 282.17158972 193.74483225 280.71518153 193.74505258 C277.79334176 193.74549513 274.87150198 193.74594225 271.94966221 193.74639225 C271.22521552 193.74650164 270.50076883 193.74661103 269.75436921 193.74672374 C246.25813626 193.75035529 222.76193415 193.76627927 199.26571301 193.78958261 C174.42862512 193.81417083 149.59155485 193.82789813 124.75445443 193.82909369 C122.0287503 193.82926515 119.30304617 193.82948058 116.57734203 193.82972813 C115.90618886 193.8297839 115.23503569 193.82983966 114.54354455 193.82989712 C103.73675242 193.83104838 92.92999192 193.84207665 82.12321048 193.85661518 C71.26427454 193.87097146 60.40538113 193.87396927 49.54643842 193.8661752 C43.66210431 193.86225982 37.77787674 193.86324163 31.89355564 193.87723255 C26.50917257 193.88991801 21.12497668 193.88882121 15.74059407 193.87664184 C13.79039833 193.87467554 11.84018958 193.87780604 9.89001217 193.8864862 C7.24268082 193.89752545 4.59601625 193.89012821 1.94870377 193.87809467 C1.18852437 193.88568987 0.42834497 193.89328506 -0.35487017 193.90111041 C-6.01775436 193.84539996 -10.89166261 192.7970459 -15.2336874 188.97100163 C-18.86590372 184.07377204 -19.61782104 181.91993249 -19.63867092 175.82093143 C-19.64234761 175.12587409 -19.6460243 174.43081675 -19.6498124 173.71469706 C-19.660869 171.37409915 -19.66469644 169.0335456 -19.66850185 166.69292545 C-19.6747651 165.01927899 -19.68141177 163.34563393 -19.68841457 161.67199039 C-19.70583909 157.11600384 -19.71638064 152.56002779 -19.7246201 148.00401616 C-19.729768 145.15795887 -19.73584388 142.31190486 -19.74213123 139.46584988 C-19.76118878 130.56246261 -19.77541779 121.65908366 -19.7837432 112.75567991 C-19.7935137 102.4762306 -19.81982593 92.19699674 -19.8602441 81.91762334 C-19.89040498 73.9744377 -19.90521212 66.0313138 -19.90852422 58.088072 C-19.91087506 53.34316438 -19.91983963 48.59848678 -19.94498539 43.85364056 C-19.96827015 39.38763881 -19.97249776 34.92201844 -19.96222401 30.45597172 C-19.96172861 28.81892662 -19.96805035 27.18186274 -19.98178005 25.54487514 C-19.99951214 23.30489601 -19.99238779 21.06628355 -19.97924709 18.82630253 C-19.98163545 17.57433991 -19.9840238 16.3223773 -19.98648453 15.03247643 C-19.40148191 10.86486095 -18.37783689 7.62296004 -15.4914999 4.50615788 C-10.17685661 0.8023606 -6.39357404 -0.0758323 0 0 Z M12.5085001 33.50615788 C12.5085001 75.41615788 12.5085001 117.32615788 12.5085001 160.50615788 C160.3485001 160.50615788 308.1885001 160.50615788 460.5085001 160.50615788 C460.5085001 118.59615788 460.5085001 76.68615788 460.5085001 33.50615788 C444.6685001 33.50615788 428.8285001 33.50615788 412.5085001 33.50615788 C412.5085001 59.90615788 412.5085001 86.30615788 412.5085001 113.50615788 C401.9485001 113.50615788 391.3885001 113.50615788 380.5085001 113.50615788 C380.5085001 87.10615788 380.5085001 60.70615788 380.5085001 33.50615788 C364.6685001 33.50615788 348.8285001 33.50615788 332.5085001 33.50615788 C332.5085001 49.34615788 332.5085001 65.18615788 332.5085001 81.50615788 C321.9485001 81.50615788 311.3885001 81.50615788 300.5085001 81.50615788 C300.5085001 65.66615788 300.5085001 49.82615788 300.5085001 33.50615788 C284.6685001 33.50615788 268.8285001 33.50615788 252.5085001 33.50615788 C252.5085001 59.90615788 252.5085001 86.30615788 252.5085001 113.50615788 C241.9485001 113.50615788 231.3885001 113.50615788 220.5085001 113.50615788 C220.5085001 87.10615788 220.5085001 60.70615788 220.5085001 33.50615788 C204.6685001 33.50615788 188.8285001 33.50615788 172.5085001 33.50615788 C172.5085001 49.34615788 172.5085001 65.18615788 172.5085001 81.50615788 C161.9485001 81.50615788 151.3885001 81.50615788 140.5085001 81.50615788 C140.5085001 65.66615788 140.5085001 49.82615788 140.5085001 33.50615788 C124.6685001 33.50615788 108.8285001 33.50615788 92.5085001 33.50615788 C92.5085001 59.90615788 92.5085001 86.30615788 92.5085001 113.50615788 C81.9485001 113.50615788 71.3885001 113.50615788 60.5085001 113.50615788 C60.5085001 87.10615788 60.5085001 60.70615788 60.5085001 33.50615788 C44.6685001 33.50615788 28.8285001 33.50615788 12.5085001 33.50615788 Z " fill="#00564F" transform="translate(19.49149990081787,153.49384212493896)"/>
</svg>
