<?xml version="1.0" encoding="UTF-8"?>
<svg version="1.1" xmlns="http://www.w3.org/2000/svg" width="512" height="512">
<path d="M0 0 C1.03350586 0.12874512 2.06701172 0.25749023 3.13183594 0.39013672 C29.59281285 3.7946641 53.49521352 13.7083087 71.0625 34.625 C80.02079941 46.2600821 86.64468499 59.5333924 89.98046875 73.8359375 C90.15335922 74.57708298 90.32624969 75.31822845 90.50437927 76.08183289 C92.28461557 83.93474815 93.50149987 91.83460574 94.5625 99.8125 C94.66605804 100.58698486 94.76961609 101.36146973 94.87631226 102.15942383 C95.51893773 107.00895524 96.13097269 111.86168782 96.72143555 116.71783447 C96.97989194 118.8352628 97.24634152 120.95154917 97.51367188 123.06787109 C102.78022281 166.49506342 102.74502811 213.51807438 97.26293945 256.91705322 C96.97907661 259.16575034 96.70521641 261.41555666 96.43164062 263.66552734 C95.83677199 268.51001069 95.20937264 273.34970039 94.5625 278.1875 C94.4653067 278.91831787 94.3681134 279.64913574 94.26797485 280.40209961 C90.341674 309.39454266 81.44986902 336.96992569 58.125 356.3125 C39.26693288 370.43370666 19.86148836 375.53813207 -3.125 378.4375 C-3.95168182 378.54260895 -4.77836365 378.6477179 -5.63009644 378.75601196 C-105.36976802 391.29035248 -208.44745867 390.64725238 -308.1875 378.5 C-308.99031403 378.40439789 -309.79312805 378.30879578 -310.62026978 378.21029663 C-338.76296135 374.80856145 -364.37765099 365.54772789 -383.125 343.3125 C-395.90250058 326.61931376 -401.80846477 308.51229729 -405 288 C-405.16741699 286.94570801 -405.33483398 285.89141602 -405.50732422 284.80517578 C-406.8464443 276.22349076 -407.96406573 267.62310396 -409 259 C-409.23082275 257.15921875 -409.23082275 257.15921875 -409.46630859 255.28125 C-414.7140214 211.71105073 -414.76345865 164.62783111 -409.26293945 121.08294678 C-408.97907661 118.83424966 -408.70521641 116.58444334 -408.43164062 114.33447266 C-407.83677199 109.48998931 -407.20937264 104.65029961 -406.5625 99.8125 C-406.4653067 99.08168213 -406.3681134 98.35086426 -406.26797485 97.59790039 C-402.15467202 67.22460435 -392.72674308 39.51481684 -367.875 19.8125 C-358.23814167 12.54276456 -347.78827581 7.43971313 -336.1015625 4.4296875 C-335.27736816 4.21631241 -334.45317383 4.00293732 -333.60400391 3.78309631 C-325.14058658 1.67001803 -316.65570577 0.43818323 -308 -0.5625 C-307.16495941 -0.66261383 -306.32991882 -0.76272766 -305.46957397 -0.86587524 C-207.15071592 -12.6092845 -106.10337414 -12.76933971 0 0 Z M-305.8125 32.5 C-306.61174896 32.59560211 -307.41099792 32.69120422 -308.23446655 32.78970337 C-328.30553589 35.22534619 -345.81384324 41.36326742 -358.625 57.6875 C-368.4199843 71.18059062 -371.2551769 85.9034595 -373.5 102.125 C-373.60638794 102.88100494 -373.71277588 103.63700989 -373.8223877 104.41592407 C-377.23991948 128.82053256 -379.46579674 153.35542284 -380 178 C-380.02191406 178.84304687 -380.04382813 179.68609375 -380.06640625 180.5546875 C-382.57960593 257.5642671 -382.57960593 257.5642671 -354.84375 325.28515625 C-337.81012835 341.12786791 -318.7207974 343.94141112 -296.5625 346.5 C-295.64894745 346.60672028 -294.7353949 346.71344055 -293.79415894 346.82339478 C-198.62059019 357.87837563 -100.68412082 357.6051515 -5.625 345.5 C-4.85144165 345.40439789 -4.0778833 345.30879578 -3.28088379 345.21029663 C16.58794403 342.71582898 33.95308191 336.45931188 46.625 320.3125 C74.26293704 281.97600669 69.49048617 207.34410903 67.25 162.1875 C67.18664459 160.89948486 67.18664459 160.89948486 67.12200928 159.58544922 C66.22093005 100.80329703 66.22093005 100.80329703 41 51 C24.16287496 36.76272515 6.36198246 33.87635521 -14.875 31.5 C-16.28409134 31.33991959 -16.28409134 31.33991959 -17.72164917 31.17660522 C-113.12094208 20.38378563 -210.5220124 20.73461607 -305.8125 32.5 Z " fill="#000000" transform="translate(412,67)"/>
<path d="M0 0 C1.32843232 0.75970672 2.64297841 1.54403156 3.9453125 2.34765625 C5.07235596 3.00713257 5.07235596 3.00713257 6.22216797 3.67993164 C8.85398781 5.23167521 11.46231785 6.81871375 14.0703125 8.41015625 C16.15863811 9.67093086 18.24719209 10.93132725 20.3359375 12.19140625 C24.43481201 14.67124019 28.5279742 17.16000817 32.61605835 19.65757751 C40.97921556 24.76516615 49.38985298 29.78958059 57.8203125 34.78515625 C58.81356033 35.3740715 58.81356033 35.3740715 59.82687378 35.97488403 C65.97060299 39.61745137 72.11705688 43.25540621 78.26513672 46.890625 C86.95139967 52.02710846 95.63196384 57.17289434 104.2946167 62.34912109 C106.00994908 63.37408717 107.72591046 64.39800036 109.44189453 65.421875 C112.40836864 67.1983713 115.36604454 68.98845442 118.3203125 70.78515625 C119.16553467 71.29030762 120.01075684 71.79545898 120.8815918 72.31591797 C125.79066006 75.32999635 129.62626624 78.0991213 132.00390625 83.55078125 C133.20331842 88.5715764 133.02621179 92.25696748 131.48046875 97.171875 C126.96593345 104.33760555 118.72612673 108.18054451 111.57977295 112.26931763 C108.98778604 113.7525218 106.40521527 115.2517873 103.822052 116.75028992 C102.49589353 117.51953356 101.16929259 118.28801491 99.84225464 119.05574036 C93.67047904 122.62941368 87.55236357 126.28954542 81.4453125 129.97265625 C71.87899646 135.73189918 62.28665631 141.44530787 52.67651367 147.13110352 C51.55349854 147.79553467 50.4304834 148.45996582 49.2734375 149.14453125 C48.70176346 149.48274399 48.13008942 149.82095673 47.54109192 150.16941833 C42.9375362 152.89412726 38.33928602 155.62769489 33.7421875 158.36328125 C32.3164974 159.21127944 30.89079755 160.05926125 29.46508789 160.90722656 C27.39558472 162.13812289 25.32628621 163.36935433 23.25778198 164.60192871 C19.48729643 166.84854679 15.71183586 169.08632752 11.9291687 171.31237793 C10.66347615 172.05985363 9.3999834 172.81106394 8.13845825 173.56555176 C6.25082398 174.69409374 4.35668405 175.81093454 2.4609375 176.92578125 C0.81206543 177.90466309 0.81206543 177.90466309 -0.87011719 178.90332031 C-5.34530489 181.10734669 -9.09447937 181.56922224 -13.9296875 180.41015625 C-19.25185951 178.54380691 -22.26121186 175.33657282 -24.9296875 170.41015625 C-26.06261315 166.97880482 -26.0605874 163.73426221 -26.07012939 160.13653564 C-26.07583954 158.84681854 -26.08154968 157.55710144 -26.08743286 156.228302 C-26.08867815 154.80096445 -26.08980326 153.37362679 -26.09082031 151.94628906 C-26.09545024 150.44145588 -26.10047513 148.93662387 -26.10586548 147.43179321 C-26.11897544 143.34484685 -26.1254318 139.2579169 -26.12987614 135.1709528 C-26.13280937 132.61600843 -26.13691467 130.06106852 -26.14138031 127.5061264 C-26.15505208 119.50776289 -26.16472008 111.5094096 -26.1685822 103.5110352 C-26.17306111 94.2866481 -26.19060255 85.06240931 -26.2195828 75.83806729 C-26.24122046 68.70246111 -26.25128761 61.56689659 -26.25262332 54.43125796 C-26.25366993 50.1720832 -26.259547 45.91304792 -26.27744293 41.65390778 C-26.29395953 37.64508673 -26.29606181 33.63650948 -26.28730392 29.62766647 C-26.28653544 28.16036449 -26.29085129 26.6930492 -26.30076218 25.22578049 C-26.40897866 8.19946146 -26.40897866 8.19946146 -21.51311111 2.86735916 C-15.51515763 -2.41572687 -7.25489405 -3.55960905 0 0 Z M7.0703125 44.41015625 C7.0703125 74.11015625 7.0703125 103.81015625 7.0703125 134.41015625 C10.76315536 132.93301911 13.85680369 131.49272661 17.26171875 129.53125 C18.27500244 128.94819092 19.28828613 128.36513184 20.33227539 127.7644043 C21.42145264 127.13187744 22.51062988 126.49935059 23.6328125 125.84765625 C24.77161865 125.18870361 25.9104248 124.52975098 27.08374023 123.85083008 C36.86097169 118.17615912 46.53252446 112.33118102 56.17504883 106.43115234 C61.29393076 103.30050133 66.41724171 100.18515703 71.61328125 97.18359375 C72.42144287 96.71671143 73.22960449 96.2498291 74.06225586 95.76879883 C75.52147669 94.9311944 76.9843138 94.09984489 78.45141602 93.27612305 C80.02319808 92.37467478 81.55309117 91.40068503 83.0703125 90.41015625 C83.0703125 89.75015625 83.0703125 89.09015625 83.0703125 88.41015625 C82.10883301 87.86210327 82.10883301 87.86210327 81.12792969 87.30297852 C68.21988003 79.93233148 55.38756223 72.45933132 42.6953125 64.72265625 C42.11255554 64.36762024 41.52979858 64.01258423 40.92938232 63.64678955 C38.06467891 61.90104401 35.20106892 60.15351982 32.33789062 58.40527344 C27.37889462 55.37741066 22.41640912 52.35561266 17.4453125 49.34765625 C16.61596191 48.84081299 15.78661133 48.33396973 14.93212891 47.81176758 C14.18108887 47.35825928 13.43004883 46.90475098 12.65625 46.4375 C12.0070459 46.04296631 11.3578418 45.64843262 10.68896484 45.24194336 C9.07714456 44.25780291 9.07714456 44.25780291 7.0703125 44.41015625 Z " fill="#000000" transform="translate(212.9296875,166.58984375)"/>
</svg>
